<svg width="286" height="121" viewBox="0 0 286 121" fill="none" xmlns="http://www.w3.org/2000/svg">
<path fill-rule="evenodd" clip-rule="evenodd" d="M1 97.5L53.5 77L90.5 48.5L153.5 77L201 56L242 84L268 82V97.5H1Z" fill="#F3F3FF"/>
<mask id="mask0" mask-type="alpha" maskUnits="userSpaceOnUse" x="1" y="48" width="267" height="50">
<path fill-rule="evenodd" clip-rule="evenodd" d="M1 97.5L53.5 77L90.5 48.5L153.5 77L201 56L242 84L268 82V97.5H1Z" fill="white"/>
</mask>
<g mask="url(#mask0)">
<g filter="url(#filter0_d)">
<path d="M1 97.5L53.5 77L90.5 48.5L153.5 77L201 56L242 84.5L268 82" stroke="#918BED" stroke-width="3" stroke-linecap="round"/>
</g>
</g>
<rect x="211" y="37.9153" width="50" height="41.6578" rx="5" fill="#292847"/>
<path d="M205 57.911L212.5 53.9148V61.9072L205 57.911Z" fill="#292847"/>
<path d="M228.49 57.95V59H223.71V58.05L226.13 55.44C226.417 55.1267 226.627 54.84 226.76 54.58C226.893 54.32 226.96 54.0633 226.96 53.81C226.96 53.4833 226.863 53.2367 226.67 53.07C226.483 52.9033 226.213 52.82 225.86 52.82C225.233 52.82 224.59 53.0667 223.93 53.56L223.5 52.62C223.78 52.3667 224.14 52.1667 224.58 52.02C225.02 51.8667 225.463 51.79 225.91 51.79C226.623 51.79 227.187 51.9667 227.6 52.32C228.02 52.6667 228.23 53.1367 228.23 53.73C228.23 54.1367 228.14 54.52 227.96 54.88C227.787 55.24 227.493 55.6433 227.08 56.09L225.33 57.95H228.49ZM230.956 57.6V58.52C230.956 58.8733 230.896 59.1933 230.776 59.48C230.656 59.7667 230.453 60.0533 230.166 60.34L229.656 59.93C229.969 59.5967 230.149 59.2867 230.196 59H229.556V57.6H230.956ZM237.276 57.61H236.266V59H235.006V57.61H231.906V56.65L235.236 51.88H236.266V56.6H237.276V57.61ZM235.006 56.6V53.89L233.126 56.6H235.006ZM241.712 55.34C242.172 55.4533 242.532 55.6633 242.792 55.97C243.052 56.2767 243.182 56.6467 243.182 57.08C243.182 57.4867 243.068 57.8433 242.842 58.15C242.622 58.45 242.308 58.68 241.902 58.84C241.502 59 241.038 59.08 240.512 59.08C239.985 59.08 239.518 59 239.112 58.84C238.712 58.68 238.398 58.45 238.172 58.15C237.952 57.8433 237.842 57.4867 237.842 57.08C237.842 56.6467 237.972 56.2767 238.232 55.97C238.492 55.6633 238.852 55.4533 239.312 55.34C238.912 55.2067 238.595 54.9967 238.362 54.71C238.135 54.4233 238.022 54.09 238.022 53.71C238.022 53.3233 238.128 52.9867 238.342 52.7C238.555 52.4067 238.848 52.1833 239.222 52.03C239.602 51.87 240.032 51.79 240.512 51.79C240.992 51.79 241.418 51.87 241.792 52.03C242.172 52.1833 242.468 52.4067 242.682 52.7C242.895 52.9867 243.002 53.3233 243.002 53.71C243.002 54.0967 242.885 54.4367 242.652 54.73C242.425 55.0167 242.112 55.22 241.712 55.34ZM240.512 52.8C240.118 52.8 239.808 52.89 239.582 53.07C239.355 53.25 239.242 53.5067 239.242 53.84C239.242 54.1533 239.355 54.41 239.582 54.61C239.815 54.8033 240.125 54.93 240.512 54.99C240.898 54.93 241.205 54.8033 241.432 54.61C241.665 54.41 241.782 54.1533 241.782 53.84C241.782 53.5067 241.668 53.25 241.442 53.07C241.215 52.89 240.905 52.8 240.512 52.8ZM240.512 58.07C240.965 58.07 241.318 57.9767 241.572 57.79C241.832 57.6033 241.962 57.3367 241.962 56.99C241.962 56.6633 241.828 56.4 241.562 56.2C241.302 56 240.952 55.87 240.512 55.81C240.072 55.87 239.718 56 239.452 56.2C239.192 56.4 239.062 56.6633 239.062 56.99C239.062 57.3367 239.188 57.6033 239.442 57.79C239.702 57.9767 240.058 58.07 240.512 58.07ZM246.948 54.43C247.368 54.43 247.741 54.5267 248.068 54.72C248.401 54.9133 248.661 55.1833 248.848 55.53C249.034 55.8767 249.128 56.2733 249.128 56.72C249.128 57.1733 249.024 57.58 248.818 57.94C248.618 58.3 248.334 58.5833 247.968 58.79C247.608 58.99 247.198 59.09 246.738 59.09C245.838 59.09 245.144 58.7867 244.658 58.18C244.171 57.5667 243.928 56.6967 243.928 55.57C243.928 54.7833 244.041 54.1067 244.268 53.54C244.501 52.9733 244.834 52.54 245.268 52.24C245.708 51.94 246.228 51.79 246.828 51.79C247.254 51.79 247.668 51.8633 248.068 52.01C248.474 52.15 248.828 52.3533 249.128 52.62L248.688 53.56C248.061 53.0667 247.458 52.82 246.878 52.82C246.351 52.82 245.944 53.0433 245.658 53.49C245.371 53.9367 245.221 54.5767 245.208 55.41C245.361 55.11 245.594 54.8733 245.908 54.7C246.221 54.52 246.568 54.43 246.948 54.43ZM246.678 58.07C247.044 58.07 247.338 57.95 247.558 57.71C247.784 57.47 247.898 57.1533 247.898 56.76C247.898 56.3667 247.784 56.0533 247.558 55.82C247.338 55.58 247.041 55.46 246.668 55.46C246.294 55.46 245.991 55.58 245.758 55.82C245.524 56.06 245.408 56.3733 245.408 56.76C245.408 57.1467 245.524 57.4633 245.758 57.71C245.998 57.95 246.304 58.07 246.678 58.07ZM226.857 66.768H224.337L223.805 68H223.07L225.289 63.016H225.898L228.124 68H227.389L226.857 66.768ZM226.612 66.194L225.597 63.821L224.582 66.194H226.612ZM230.575 64.388C230.879 64.388 231.149 64.465 231.387 64.619C231.625 64.773 231.81 64.99 231.94 65.27C232.076 65.55 232.143 65.872 232.143 66.236C232.143 66.6 232.078 66.9197 231.947 67.195C231.817 67.4657 231.632 67.6757 231.394 67.825C231.156 67.9743 230.883 68.049 230.575 68.049C230.305 68.049 230.067 67.993 229.861 67.881C229.661 67.7643 229.509 67.5987 229.406 67.384V69.512H228.706V65.466C228.706 65.0973 228.688 64.766 228.65 64.472H229.308L229.378 65.123C229.472 64.8897 229.623 64.71 229.833 64.584C230.043 64.4533 230.291 64.388 230.575 64.388ZM230.414 67.489C230.732 67.489 230.979 67.3793 231.156 67.16C231.334 66.9407 231.422 66.6327 231.422 66.236C231.422 65.8347 231.334 65.522 231.156 65.298C230.979 65.0693 230.732 64.955 230.414 64.955C230.088 64.955 229.838 65.0647 229.665 65.284C229.493 65.5033 229.406 65.816 229.406 66.222C229.406 66.628 229.493 66.9407 229.665 67.16C229.843 67.3793 230.092 67.489 230.414 67.489ZM234.729 64.388C234.836 64.388 234.948 64.4043 235.065 64.437L235.051 65.081C234.925 65.0343 234.787 65.011 234.638 65.011C234.316 65.011 234.073 65.109 233.91 65.305C233.751 65.4963 233.672 65.739 233.672 66.033V68H232.972V65.466C232.972 65.0973 232.953 64.766 232.916 64.472H233.574L233.637 65.109C233.73 64.8757 233.875 64.6983 234.071 64.577C234.267 64.451 234.486 64.388 234.729 64.388ZM236.182 67.16V67.734C236.182 67.9533 236.145 68.1517 236.07 68.329C235.995 68.511 235.869 68.6907 235.692 68.868L235.391 68.623C235.587 68.4083 235.699 68.2007 235.727 68H235.342V67.16H236.182ZM242.285 67.405V68H239.016V67.461L240.731 65.578C240.95 65.3353 241.109 65.116 241.207 64.92C241.309 64.7193 241.361 64.521 241.361 64.325C241.361 64.073 241.288 63.8817 241.144 63.751C240.999 63.6157 240.789 63.548 240.514 63.548C240.052 63.548 239.59 63.73 239.128 64.094L238.869 63.562C239.065 63.38 239.314 63.2353 239.618 63.128C239.921 63.016 240.227 62.96 240.535 62.96C241.011 62.96 241.386 63.079 241.662 63.317C241.942 63.555 242.082 63.877 242.082 64.283C242.082 64.5723 242.019 64.8477 241.893 65.109C241.767 65.3657 241.557 65.6527 241.263 65.97L239.933 67.405H242.285ZM244.767 68.056C244.188 68.056 243.747 67.839 243.444 67.405C243.141 66.971 242.989 66.3387 242.989 65.508C242.989 64.6773 243.141 64.045 243.444 63.611C243.747 63.177 244.188 62.96 244.767 62.96C245.346 62.96 245.787 63.177 246.09 63.611C246.393 64.0403 246.545 64.6703 246.545 65.501C246.545 66.3363 246.393 66.971 246.09 67.405C245.787 67.839 245.346 68.056 244.767 68.056ZM244.767 67.475C245.126 67.475 245.39 67.3163 245.558 66.999C245.731 66.677 245.817 66.1777 245.817 65.501C245.817 64.8243 245.733 64.3297 245.565 64.017C245.397 63.7043 245.131 63.548 244.767 63.548C244.408 63.548 244.142 63.7067 243.969 64.024C243.801 64.3367 243.717 64.829 243.717 65.501C243.717 66.1777 243.801 66.677 243.969 66.999C244.142 67.3163 244.408 67.475 244.767 67.475Z" fill="#F2F2F2"/>
<circle cx="201.5" cy="57.5" r="3.5" fill="#7870E7"/>
<defs>
<filter id="filter0_d" x="-4.5004" y="46.7622" width="278.001" height="64.2382" filterUnits="userSpaceOnUse" color-interpolation-filters="sRGB">
<feFlood flood-opacity="0" result="BackgroundImageFix"/>
<feColorMatrix in="SourceAlpha" type="matrix" values="0 0 0 0 0 0 0 0 0 0 0 0 0 0 0 0 0 0 127 0"/>
<feOffset dy="8"/>
<feGaussianBlur stdDeviation="2"/>
<feColorMatrix type="matrix" values="0 0 0 0 0.678431 0 0 0 0 0.568627 0 0 0 0 0.945098 0 0 0 0.236178 0"/>
<feBlend mode="normal" in2="BackgroundImageFix" result="effect1_dropShadow"/>
<feBlend mode="normal" in="SourceGraphic" in2="effect1_dropShadow" result="shape"/>
</filter>
</defs>
</svg>
