<svg width="286" height="121" viewBox="0 0 286 121" fill="none" xmlns="http://www.w3.org/2000/svg">
<path fill-rule="evenodd" clip-rule="evenodd" d="M23 84.63L70.5843 69.46L104.12 48.37L161.221 69.46L204.273 53.92L241.434 74.64L265 73.16V84.63H23Z" fill="#F3F3FF"/>
<ellipse cx="204.727" cy="55.03" rx="2.26591" ry="1.85" fill="#8D84F4"/>
<mask id="mask0" mask-type="alpha" maskUnits="userSpaceOnUse" x="23" y="48" width="242" height="37">
<path fill-rule="evenodd" clip-rule="evenodd" d="M23 84.63L70.5843 69.46L104.12 48.37L161.221 69.46L204.273 53.92L241.434 74.64L265 73.16V84.63H23Z" fill="white"/>
</mask>
<g mask="url(#mask0)">
<g filter="url(#filter0_d)">
<path d="M23 84.63L70.5843 69.3052L104.12 48L161.221 69.3052L204.273 53.6066L241.434 74.9118L265 73.043" stroke="#918BED" stroke-width="3" stroke-linecap="round"/>
</g>
</g>
<rect x="213" y="36.9153" width="48" height="39.9915" rx="5" fill="#292847"/>
<path d="M207 56.911L214.5 52.9148V60.9072L207 56.911Z" fill="#292847"/>
<path d="M228.905 53.85C229.038 53.85 229.143 53.8883 229.22 53.965C229.3 54.0383 229.34 54.1367 229.34 54.26V55H224.38V54.59C224.38 54.5067 224.397 54.42 224.43 54.33C224.467 54.2367 224.523 54.1533 224.6 54.08L226.795 51.88C226.978 51.6933 227.142 51.515 227.285 51.345C227.432 51.175 227.553 51.0067 227.65 50.84C227.747 50.6733 227.82 50.505 227.87 50.335C227.923 50.1617 227.95 49.98 227.95 49.79C227.95 49.6167 227.925 49.465 227.875 49.335C227.825 49.2017 227.753 49.09 227.66 49C227.57 48.91 227.46 48.8433 227.33 48.8C227.203 48.7533 227.06 48.73 226.9 48.73C226.753 48.73 226.617 48.7517 226.49 48.795C226.367 48.835 226.257 48.8933 226.16 48.97C226.063 49.0433 225.982 49.13 225.915 49.23C225.848 49.33 225.798 49.44 225.765 49.56C225.708 49.7133 225.635 49.815 225.545 49.865C225.455 49.915 225.325 49.9267 225.155 49.9L224.505 49.785C224.555 49.4383 224.652 49.135 224.795 48.875C224.938 48.6117 225.117 48.3933 225.33 48.22C225.547 48.0433 225.793 47.9117 226.07 47.825C226.35 47.735 226.65 47.69 226.97 47.69C227.303 47.69 227.608 47.74 227.885 47.84C228.162 47.9367 228.398 48.075 228.595 48.255C228.792 48.435 228.945 48.6517 229.055 48.905C229.165 49.1583 229.22 49.44 229.22 49.75C229.22 50.0167 229.18 50.2633 229.1 50.49C229.023 50.7167 228.918 50.9333 228.785 51.14C228.655 51.3467 228.502 51.5467 228.325 51.74C228.148 51.9333 227.963 52.13 227.77 52.33L226.14 53.995C226.297 53.9483 226.452 53.9133 226.605 53.89C226.762 53.8633 226.91 53.85 227.05 53.85H228.905ZM230.391 56.225C230.331 56.175 230.301 56.1133 230.301 56.04C230.301 56.0133 230.309 55.9833 230.326 55.95C230.346 55.9167 230.369 55.8867 230.396 55.86C230.432 55.82 230.477 55.77 230.531 55.71C230.584 55.6533 230.637 55.5867 230.691 55.51C230.744 55.4367 230.792 55.355 230.836 55.265C230.882 55.1783 230.917 55.085 230.941 54.985C230.834 54.985 230.737 54.9667 230.651 54.93C230.564 54.89 230.489 54.8367 230.426 54.77C230.366 54.7033 230.317 54.625 230.281 54.535C230.247 54.445 230.231 54.3467 230.231 54.24C230.231 54.1467 230.247 54.06 230.281 53.98C230.317 53.8967 230.367 53.825 230.431 53.765C230.494 53.7017 230.571 53.6533 230.661 53.62C230.751 53.5833 230.849 53.565 230.956 53.565C231.082 53.565 231.192 53.5883 231.286 53.635C231.382 53.6783 231.461 53.74 231.521 53.82C231.584 53.8967 231.631 53.9867 231.661 54.09C231.694 54.19 231.711 54.2967 231.711 54.41C231.711 54.57 231.686 54.7383 231.636 54.915C231.589 55.0917 231.519 55.2683 231.426 55.445C231.332 55.6217 231.216 55.7933 231.076 55.96C230.939 56.1267 230.782 56.28 230.606 56.42L230.391 56.225ZM235.705 52.275V49.91C235.705 49.6867 235.72 49.44 235.75 49.17L233.505 52.275H235.705ZM237.69 52.275V52.99C237.69 53.0567 237.668 53.115 237.625 53.165C237.581 53.2117 237.52 53.235 237.44 53.235H236.78V55H235.705V53.235H232.655C232.571 53.235 232.498 53.21 232.435 53.16C232.371 53.1067 232.331 53.0417 232.315 52.965L232.185 52.34L235.61 47.765H236.78V52.275H237.69ZM240.845 54.115C241.049 54.115 241.227 54.0867 241.38 54.03C241.534 53.97 241.662 53.8883 241.765 53.785C241.872 53.6817 241.952 53.5583 242.005 53.415C242.059 53.2717 242.085 53.1167 242.085 52.95C242.085 52.5533 241.975 52.2533 241.755 52.05C241.535 51.8467 241.232 51.745 240.845 51.745C240.459 51.745 240.155 51.8467 239.935 52.05C239.715 52.2533 239.605 52.5533 239.605 52.95C239.605 53.1167 239.632 53.2717 239.685 53.415C239.739 53.5583 239.817 53.6817 239.92 53.785C240.027 53.8883 240.157 53.97 240.31 54.03C240.464 54.0867 240.642 54.115 240.845 54.115ZM240.845 48.62C240.662 48.62 240.504 48.6483 240.37 48.705C240.237 48.7617 240.125 48.8383 240.035 48.935C239.949 49.0283 239.884 49.1367 239.84 49.26C239.8 49.3833 239.78 49.5133 239.78 49.65C239.78 49.7933 239.797 49.9333 239.83 50.07C239.867 50.2033 239.927 50.3233 240.01 50.43C240.094 50.5333 240.204 50.6167 240.34 50.68C240.477 50.7433 240.645 50.775 240.845 50.775C241.045 50.775 241.214 50.7433 241.35 50.68C241.487 50.6167 241.597 50.5333 241.68 50.43C241.764 50.3233 241.822 50.2033 241.855 50.07C241.892 49.9333 241.91 49.7933 241.91 49.65C241.91 49.5133 241.889 49.3833 241.845 49.26C241.802 49.1367 241.737 49.0283 241.65 48.935C241.564 48.8383 241.454 48.7617 241.32 48.705C241.187 48.6483 241.029 48.62 240.845 48.62ZM242.065 51.23C242.505 51.3733 242.83 51.5933 243.04 51.89C243.25 52.1833 243.355 52.5433 243.355 52.97C243.355 53.29 243.294 53.58 243.17 53.84C243.05 54.1 242.88 54.3217 242.66 54.505C242.44 54.6883 242.175 54.83 241.865 54.93C241.559 55.03 241.219 55.08 240.845 55.08C240.472 55.08 240.13 55.03 239.82 54.93C239.514 54.83 239.25 54.6883 239.03 54.505C238.81 54.3217 238.639 54.1 238.515 53.84C238.395 53.58 238.335 53.29 238.335 52.97C238.335 52.5433 238.44 52.1833 238.65 51.89C238.86 51.5933 239.185 51.3733 239.625 51.23C239.275 51.0833 239.012 50.875 238.835 50.605C238.662 50.335 238.575 50.01 238.575 49.63C238.575 49.3567 238.63 49.1017 238.74 48.865C238.854 48.6283 239.01 48.4233 239.21 48.25C239.41 48.0733 239.649 47.9367 239.925 47.84C240.205 47.74 240.512 47.69 240.845 47.69C241.179 47.69 241.484 47.74 241.76 47.84C242.04 47.9367 242.28 48.0733 242.48 48.25C242.68 48.4233 242.835 48.6283 242.945 48.865C243.059 49.1017 243.115 49.3567 243.115 49.63C243.115 50.01 243.027 50.335 242.85 50.605C242.677 50.875 242.415 51.0833 242.065 51.23ZM246.356 50.395L246.106 50.705C246.246 50.635 246.396 50.5817 246.556 50.545C246.719 50.505 246.894 50.485 247.081 50.485C247.354 50.485 247.619 50.53 247.876 50.62C248.136 50.71 248.364 50.8467 248.561 51.03C248.758 51.21 248.916 51.435 249.036 51.705C249.156 51.975 249.216 52.29 249.216 52.65C249.216 52.9867 249.154 53.3033 249.031 53.6C248.908 53.8933 248.734 54.15 248.511 54.37C248.288 54.59 248.018 54.7633 247.701 54.89C247.388 55.0167 247.041 55.08 246.661 55.08C246.274 55.08 245.928 55.0183 245.621 54.895C245.314 54.7717 245.053 54.6 244.836 54.38C244.619 54.1567 244.453 53.89 244.336 53.58C244.223 53.2667 244.166 52.92 244.166 52.54C244.166 52.2 244.234 51.8517 244.371 51.495C244.511 51.135 244.726 50.7617 245.016 50.375L246.741 48.06C246.801 47.98 246.888 47.9117 247.001 47.855C247.118 47.7983 247.251 47.77 247.401 47.77H248.501L246.356 50.395ZM246.636 54.07C246.833 54.07 247.013 54.0367 247.176 53.97C247.343 53.9033 247.484 53.81 247.601 53.69C247.721 53.57 247.814 53.43 247.881 53.27C247.948 53.1067 247.981 52.93 247.981 52.74C247.981 52.5333 247.949 52.3483 247.886 52.185C247.823 52.0183 247.733 51.8783 247.616 51.765C247.499 51.6483 247.359 51.56 247.196 51.5C247.033 51.44 246.853 51.41 246.656 51.41C246.459 51.41 246.281 51.4433 246.121 51.51C245.961 51.5767 245.824 51.67 245.711 51.79C245.598 51.9067 245.509 52.0467 245.446 52.21C245.383 52.37 245.351 52.5433 245.351 52.73C245.351 52.93 245.378 53.1133 245.431 53.28C245.488 53.4433 245.569 53.5833 245.676 53.7C245.786 53.8167 245.921 53.9083 246.081 53.975C246.241 54.0383 246.426 54.07 246.636 54.07ZM227.857 62.768H225.337L224.805 64H224.07L226.289 59.016H226.898L229.124 64H228.389L227.857 62.768ZM227.612 62.194L226.597 59.821L225.582 62.194H227.612ZM231.575 60.388C231.879 60.388 232.149 60.465 232.387 60.619C232.625 60.773 232.81 60.99 232.94 61.27C233.076 61.55 233.143 61.872 233.143 62.236C233.143 62.6 233.078 62.9197 232.947 63.195C232.817 63.4657 232.632 63.6757 232.394 63.825C232.156 63.9743 231.883 64.049 231.575 64.049C231.305 64.049 231.067 63.993 230.861 63.881C230.661 63.7643 230.509 63.5987 230.406 63.384V65.512H229.706V61.466C229.706 61.0973 229.688 60.766 229.65 60.472H230.308L230.378 61.123C230.472 60.8897 230.623 60.71 230.833 60.584C231.043 60.4533 231.291 60.388 231.575 60.388ZM231.414 63.489C231.732 63.489 231.979 63.3793 232.156 63.16C232.334 62.9407 232.422 62.6327 232.422 62.236C232.422 61.8347 232.334 61.522 232.156 61.298C231.979 61.0693 231.732 60.955 231.414 60.955C231.088 60.955 230.838 61.0647 230.665 61.284C230.493 61.5033 230.406 61.816 230.406 62.222C230.406 62.628 230.493 62.9407 230.665 63.16C230.843 63.3793 231.092 63.489 231.414 63.489ZM235.729 60.388C235.836 60.388 235.948 60.4043 236.065 60.437L236.051 61.081C235.925 61.0343 235.787 61.011 235.638 61.011C235.316 61.011 235.073 61.109 234.91 61.305C234.751 61.4963 234.672 61.739 234.672 62.033V64H233.972V61.466C233.972 61.0973 233.953 60.766 233.916 60.472H234.574L234.637 61.109C234.73 60.8757 234.875 60.6983 235.071 60.577C235.267 60.451 235.486 60.388 235.729 60.388ZM237.182 63.16V63.734C237.182 63.9533 237.145 64.1517 237.07 64.329C236.995 64.511 236.869 64.6907 236.692 64.868L236.391 64.623C236.587 64.4083 236.699 64.2007 236.727 64H236.342V63.16H237.182ZM243.285 63.405V64H240.016V63.461L241.731 61.578C241.95 61.3353 242.109 61.116 242.207 60.92C242.309 60.7193 242.361 60.521 242.361 60.325C242.361 60.073 242.288 59.8817 242.144 59.751C241.999 59.6157 241.789 59.548 241.514 59.548C241.052 59.548 240.59 59.73 240.128 60.094L239.869 59.562C240.065 59.38 240.314 59.2353 240.618 59.128C240.921 59.016 241.227 58.96 241.535 58.96C242.011 58.96 242.386 59.079 242.662 59.317C242.942 59.555 243.082 59.877 243.082 60.283C243.082 60.5723 243.019 60.8477 242.893 61.109C242.767 61.3657 242.557 61.6527 242.263 61.97L240.933 63.405H243.285ZM245.767 64.056C245.188 64.056 244.747 63.839 244.444 63.405C244.141 62.971 243.989 62.3387 243.989 61.508C243.989 60.6773 244.141 60.045 244.444 59.611C244.747 59.177 245.188 58.96 245.767 58.96C246.346 58.96 246.787 59.177 247.09 59.611C247.393 60.0403 247.545 60.6703 247.545 61.501C247.545 62.3363 247.393 62.971 247.09 63.405C246.787 63.839 246.346 64.056 245.767 64.056ZM245.767 63.475C246.126 63.475 246.39 63.3163 246.558 62.999C246.731 62.677 246.817 62.1777 246.817 61.501C246.817 60.8243 246.733 60.3297 246.565 60.017C246.397 59.7043 246.131 59.548 245.767 59.548C245.408 59.548 245.142 59.7067 244.969 60.024C244.801 60.3367 244.717 60.829 244.717 61.501C244.717 62.1777 244.801 62.677 244.969 62.999C245.142 63.3163 245.408 63.475 245.767 63.475Z" fill="#F2F2F2"/>
<defs>
<filter id="filter0_d" x="17.4996" y="46.3338" width="253" height="51.7966" filterUnits="userSpaceOnUse" color-interpolation-filters="sRGB">
<feFlood flood-opacity="0" result="BackgroundImageFix"/>
<feColorMatrix in="SourceAlpha" type="matrix" values="0 0 0 0 0 0 0 0 0 0 0 0 0 0 0 0 0 0 127 0"/>
<feOffset dy="8"/>
<feGaussianBlur stdDeviation="2"/>
<feColorMatrix type="matrix" values="0 0 0 0 0.678431 0 0 0 0 0.568627 0 0 0 0 0.945098 0 0 0 0.236178 0"/>
<feBlend mode="normal" in2="BackgroundImageFix" result="effect1_dropShadow"/>
<feBlend mode="normal" in="SourceGraphic" in2="effect1_dropShadow" result="shape"/>
</filter>
</defs>
</svg>
