<svg width="450" height="450" viewBox="0 0 450 450" fill="none" xmlns="http://www.w3.org/2000/svg">
<path d="M225 428.5C232.874 428.319 240.431 425.358 246.332 420.143C252.234 414.927 256.102 407.792 257.25 400H191.5C192.681 408.004 196.729 415.306 202.891 420.549C209.054 425.791 216.91 428.617 225 428.5V428.5Z" fill="#9D74FF"/>
<path d="M406.375 347.875C394.321 337.129 383.768 324.81 375 311.25C365.428 292.532 359.691 272.09 358.125 251.125V189.375C358.074 181.874 357.405 174.391 356.125 167C346.286 165.033 336.831 161.487 328.125 156.5C331.444 167.186 333.129 178.311 333.125 189.5V251.25C334.657 276.825 341.692 301.768 353.75 324.375C362.38 338.05 372.62 350.64 384.25 361.875H64.125C75.7551 350.64 85.995 338.05 94.625 324.375C106.683 301.768 113.718 276.825 115.25 251.25V189.375C115.184 174.909 117.973 160.571 123.456 147.184C128.938 133.797 137.008 121.622 147.203 111.358C157.397 101.094 169.516 92.9416 182.866 87.3677C196.215 81.7937 210.533 78.9077 225 78.875C246.172 78.8919 266.869 85.1532 284.5 96.875C282.556 89.7373 281.465 82.3945 281.25 75V67.125C268.198 60.7045 254.177 56.4811 239.75 54.625V38.875C239.75 34.4492 237.992 30.2047 234.862 27.0752C231.733 23.9456 227.488 22.1875 223.062 22.1875C218.637 22.1875 214.392 23.9456 211.263 27.0752C208.133 30.2047 206.375 34.4492 206.375 38.875V55.25C174.071 59.8069 144.507 75.8968 123.14 100.549C101.773 125.202 90.0466 156.752 90.125 189.375V251.125C88.5594 272.09 82.8222 292.532 73.25 311.25C64.636 324.779 54.2524 337.097 42.375 347.875C41.0416 349.046 39.973 350.488 39.2402 352.105C38.5074 353.721 38.1272 355.475 38.125 357.25V374.25C38.125 377.565 39.442 380.745 41.7862 383.089C44.1304 385.433 47.3098 386.75 50.625 386.75H398.125C401.44 386.75 404.62 385.433 406.964 383.089C409.308 380.745 410.625 377.565 410.625 374.25V357.25C410.623 355.475 410.243 353.721 409.51 352.105C408.777 350.488 407.708 349.046 406.375 347.875V347.875Z" fill="#9D74FF"/>
<path d="M360 180C409.706 180 450 139.706 450 90C450 40.2944 409.706 0 360 0C310.294 0 270 40.2944 270 90C270 139.706 310.294 180 360 180Z" fill="#9D74FF"/>
<path d="M333.18 77.92C333.78 73.76 334.94 70.12 336.66 67C338.38 63.84 340.52 61.22 343.08 59.14C345.68 57.02 348.64 55.44 351.96 54.4C355.32 53.32 358.92 52.78 362.76 52.78C366.76 52.78 370.36 53.36 373.56 54.52C376.8 55.64 379.56 57.22 381.84 59.26C384.12 61.26 385.86 63.62 387.06 66.34C388.3 69.06 388.92 72 388.92 75.16C388.92 77.92 388.6 80.36 387.96 82.48C387.36 84.56 386.48 86.38 385.32 87.94C384.16 89.5 382.72 90.82 381 91.9C379.28 92.98 377.34 93.88 375.18 94.6C380.38 96.24 384.26 98.74 386.82 102.1C389.38 105.46 390.66 109.68 390.66 114.76C390.66 119.08 389.86 122.9 388.26 126.22C386.66 129.54 384.5 132.34 381.78 134.62C379.06 136.86 375.9 138.56 372.3 139.72C368.74 140.88 364.96 141.46 360.96 141.46C356.6 141.46 352.8 140.96 349.56 139.96C346.32 138.96 343.5 137.48 341.1 135.52C338.7 133.56 336.66 131.16 334.98 128.32C333.3 125.48 331.86 122.2 330.66 118.48L337.2 115.78C338.92 115.06 340.52 114.88 342 115.24C343.52 115.56 344.62 116.36 345.3 117.64C346.02 119.04 346.8 120.42 347.64 121.78C348.52 123.14 349.56 124.36 350.76 125.44C351.96 126.48 353.36 127.34 354.96 128.02C356.6 128.66 358.54 128.98 360.78 128.98C363.3 128.98 365.5 128.58 367.38 127.78C369.26 126.94 370.82 125.86 372.06 124.54C373.34 123.22 374.28 121.76 374.88 120.16C375.52 118.52 375.84 116.88 375.84 115.24C375.84 113.16 375.62 111.28 375.18 109.6C374.74 107.88 373.82 106.42 372.42 105.22C371.02 104.02 369 103.08 366.36 102.4C363.76 101.72 360.26 101.38 355.86 101.38V90.82C359.5 90.78 362.52 90.44 364.92 89.8C367.32 89.16 369.22 88.28 370.62 87.16C372.06 86 373.06 84.62 373.62 83.02C374.18 81.42 374.46 79.66 374.46 77.74C374.46 73.66 373.32 70.56 371.04 68.44C368.76 66.32 365.72 65.26 361.92 65.26C360.16 65.26 358.54 65.52 357.06 66.04C355.58 66.52 354.24 67.22 353.04 68.14C351.88 69.02 350.9 70.06 350.1 71.26C349.3 72.46 348.7 73.78 348.3 75.22C347.62 77.06 346.72 78.28 345.6 78.88C344.52 79.48 342.98 79.62 340.98 79.3L333.18 77.92Z" fill="white"/>
</svg>
